<?xml version="1.0" encoding="utf-8"?>
<svg xmlns="http://www.w3.org/2000/svg" fill="none" height="24" viewBox="0 0 20 20" width="24">
<path d="M8.11914 2.04333C9.20907 1.15476 10.833 1.93795 10.833 3.35193V16.6488C10.8327 18.0625 9.20897 18.8449 8.11914 17.9564L3.74414 14.3881C2.43064 13.3169 1.6671 11.7046 1.66699 10.0004C1.66699 8.29599 2.43047 6.68298 3.74414 5.61169L8.11914 2.04333ZM12.5371 3.86365C12.6738 3.42045 13.1417 3.17326 13.5811 3.31091C16.3482 4.17816 18.333 6.8604 18.333 10.0004C18.3329 13.1403 16.3482 15.8227 13.5811 16.6898C13.1416 16.8275 12.6737 16.5795 12.5371 16.1361C12.4007 15.6927 12.6466 15.2212 13.0859 15.0834C15.1375 14.4406 16.6668 12.4234 16.667 10.0004C16.667 7.57714 15.1376 5.55916 13.0859 4.91638C12.6466 4.77852 12.4007 4.30705 12.5371 3.86365ZM4.79199 6.91931C3.8698 7.6713 3.33301 8.80393 3.33301 10.0004C3.33312 11.1967 3.86988 12.3295 4.79199 13.0814L9.16699 16.6488V3.35193L4.79199 6.91931ZM11.709 7.21228C11.8542 6.77173 12.3261 6.53275 12.7627 6.67908C14.1045 7.12949 15 8.48758 15 10.0004C14.9999 11.513 14.1044 12.8703 12.7627 13.3207C12.3262 13.467 11.8544 13.2287 11.709 12.7885C11.5639 12.3478 11.8007 11.8715 12.2373 11.725C12.8229 11.5282 13.3329 10.8716 13.333 10.0004C13.333 9.12907 12.8229 8.4726 12.2373 8.27576C11.8007 8.12922 11.564 7.65283 11.709 7.21228Z" fill="currentColor"/>
</svg>